<svg width="800px" height="800px" viewBox="0 0 24 24" xmlns="http://www.w3.org/2000/svg">
  <path fill="#00C300" d="M24 10.438C24 4.844 18.625 0.25 12 0.25S0 4.844 0 10.438c0 5 4.375 9.188 10.688 10.063.438.094 1 .281 1.156.656.125.313.094.813.031 1.125l-.25 1.5c-.063.406-.313 1.563 1.375.844 1.688-.719 9.094-5.344 9.094-5.344 4.75-2.625 1.906-8.844 1.906-8.844z"/>
  <path fill="#FEFEFE" d="M16.5 12.063h-1.5v-3h1.5c.344 0 .625-.281.625-.625s-.281-.625-.625-.625h-2.125c-.344 0-.625.281-.625.625v3.625c0 .344.281.625.625.625h2.125c.344 0 .625-.281.625-.625s-.281-.625-.625-.625zM11.625 7.813c-.344 0-.625.281-.625.625v2.281l-1.844-2.563c-.094-.156-.219-.25-.375-.313-.156-.031-.313-.031-.469 0-.156.063-.25.188-.313.313-.031.156-.031.313 0 .469v3.625c0 .344.281.625.625.625s.625-.281.625-.625v-2.281l1.844 2.563c.094.156.219.25.375.313.156.031.313.031.469 0 .156-.063.25-.188.313-.313.031-.156.031-.313 0-.469v-3.625c0-.344-.281-.625-.625-.625zM7.5 7.813H6.875c-.344 0-.625.281-.625.625v3.625c0 .344.281.625.625.625h.625c.344 0 .625-.281.625-.625v-3.625c0-.344-.281-.625-.625-.625z"/>
</svg>
